<mxfile host="app.diagrams.net" agent="Mozilla/5.0 (Windows NT 10.0; Win64; x64) AppleWebKit/537.36 (KHTML, like Gecko) Chrome/131.0.0.0 Safari/537.36 Edg/131.0.0.0" version="25.0.1">
  <diagram id="7qIe_E9TaqoNuZZSrlUd" name="第 1 页">
    <mxGraphModel dx="786" dy="463" grid="1" gridSize="10" guides="1" tooltips="1" connect="1" arrows="1" fold="1" page="1" pageScale="1" pageWidth="827" pageHeight="1169" math="0" shadow="0">
      <root>
        <mxCell id="0" />
        <mxCell id="1" parent="0" />
        <mxCell id="QekV2QWb8yjy0fEPQQju-6" value="" style="group" vertex="1" connectable="0" parent="1">
          <mxGeometry x="140" y="520" width="540" height="220" as="geometry" />
        </mxCell>
        <mxCell id="QekV2QWb8yjy0fEPQQju-23" value="" style="group" vertex="1" connectable="0" parent="QekV2QWb8yjy0fEPQQju-6">
          <mxGeometry width="540" height="220" as="geometry" />
        </mxCell>
        <mxCell id="QekV2QWb8yjy0fEPQQju-27" value="" style="rounded=0;whiteSpace=wrap;html=1;" vertex="1" parent="QekV2QWb8yjy0fEPQQju-23">
          <mxGeometry x="-20" y="-50" width="550" height="270" as="geometry" />
        </mxCell>
        <mxCell id="QekV2QWb8yjy0fEPQQju-3" value="&lt;h2 style=&quot;text-align: justify;&quot;&gt;&lt;br&gt;&lt;/h2&gt;" style="rounded=0;whiteSpace=wrap;html=1;align=center;labelPosition=center;verticalLabelPosition=middle;verticalAlign=middle;" vertex="1" parent="QekV2QWb8yjy0fEPQQju-23">
          <mxGeometry width="160" height="200" as="geometry" />
        </mxCell>
        <mxCell id="QekV2QWb8yjy0fEPQQju-4" value="&lt;h4 style=&quot;text-align: justify;&quot;&gt;&lt;font style=&quot;font-size: 15px;&quot;&gt;权重混淆模块&lt;/font&gt;&lt;/h4&gt;" style="text;strokeColor=none;align=center;fillColor=none;html=1;verticalAlign=middle;whiteSpace=wrap;rounded=0;" vertex="1" parent="QekV2QWb8yjy0fEPQQju-23">
          <mxGeometry x="30" width="100" height="30" as="geometry" />
        </mxCell>
        <mxCell id="QekV2QWb8yjy0fEPQQju-13" value="&lt;h3&gt;权重优化器&lt;/h3&gt;" style="rounded=0;whiteSpace=wrap;html=1;" vertex="1" parent="QekV2QWb8yjy0fEPQQju-23">
          <mxGeometry x="20" y="40" width="120" height="60" as="geometry" />
        </mxCell>
        <mxCell id="QekV2QWb8yjy0fEPQQju-14" value="&lt;h3&gt;权重控制器&lt;/h3&gt;" style="rounded=0;whiteSpace=wrap;html=1;" vertex="1" parent="QekV2QWb8yjy0fEPQQju-23">
          <mxGeometry x="20" y="120" width="120" height="60" as="geometry" />
        </mxCell>
        <mxCell id="QekV2QWb8yjy0fEPQQju-34" value="&lt;h4 style=&quot;text-align: justify;&quot;&gt;&lt;font&gt;混淆&lt;/font&gt;&lt;span style=&quot;background-color: initial; text-align: center;&quot;&gt;模型保护框架&lt;/span&gt;&lt;/h4&gt;" style="text;strokeColor=none;align=center;fillColor=none;html=1;verticalAlign=middle;whiteSpace=wrap;rounded=0;fontFamily=Helvetica;fontStyle=1;fontSize=18;" vertex="1" parent="QekV2QWb8yjy0fEPQQju-23">
          <mxGeometry x="171.25" y="-40" width="167.5" height="30" as="geometry" />
        </mxCell>
        <mxCell id="QekV2QWb8yjy0fEPQQju-7" value="" style="group" vertex="1" connectable="0" parent="1">
          <mxGeometry x="320" y="520" width="160" height="200" as="geometry" />
        </mxCell>
        <mxCell id="QekV2QWb8yjy0fEPQQju-24" value="" style="group" vertex="1" connectable="0" parent="QekV2QWb8yjy0fEPQQju-7">
          <mxGeometry width="160" height="200" as="geometry" />
        </mxCell>
        <mxCell id="QekV2QWb8yjy0fEPQQju-8" value="&lt;h2 style=&quot;text-align: justify;&quot;&gt;&lt;br&gt;&lt;/h2&gt;" style="rounded=0;whiteSpace=wrap;html=1;align=center;labelPosition=center;verticalLabelPosition=middle;verticalAlign=middle;" vertex="1" parent="QekV2QWb8yjy0fEPQQju-24">
          <mxGeometry width="160" height="200" as="geometry" />
        </mxCell>
        <mxCell id="QekV2QWb8yjy0fEPQQju-9" value="&lt;h4 style=&quot;text-align: justify;&quot;&gt;&lt;font style=&quot;font-size: 15px;&quot;&gt;结构混淆模块&lt;/font&gt;&lt;/h4&gt;" style="text;strokeColor=none;align=center;fillColor=none;html=1;verticalAlign=middle;whiteSpace=wrap;rounded=0;" vertex="1" parent="QekV2QWb8yjy0fEPQQju-24">
          <mxGeometry x="30" width="100" height="30" as="geometry" />
        </mxCell>
        <mxCell id="QekV2QWb8yjy0fEPQQju-20" value="&lt;h3&gt;捷径层注入&lt;/h3&gt;" style="rounded=0;whiteSpace=wrap;html=1;" vertex="1" parent="QekV2QWb8yjy0fEPQQju-24">
          <mxGeometry x="20" y="40" width="120" height="60" as="geometry" />
        </mxCell>
        <mxCell id="QekV2QWb8yjy0fEPQQju-21" value="&lt;h3&gt;额外层注入&lt;/h3&gt;" style="rounded=0;whiteSpace=wrap;html=1;" vertex="1" parent="QekV2QWb8yjy0fEPQQju-24">
          <mxGeometry x="20" y="120" width="120" height="60" as="geometry" />
        </mxCell>
        <mxCell id="QekV2QWb8yjy0fEPQQju-10" value="" style="group" vertex="1" connectable="0" parent="1">
          <mxGeometry x="520" y="520" width="160" height="200" as="geometry" />
        </mxCell>
        <mxCell id="QekV2QWb8yjy0fEPQQju-26" value="" style="group" vertex="1" connectable="0" parent="QekV2QWb8yjy0fEPQQju-10">
          <mxGeometry x="-20" width="160" height="200" as="geometry" />
        </mxCell>
        <mxCell id="QekV2QWb8yjy0fEPQQju-11" value="&lt;h2 style=&quot;text-align: justify;&quot;&gt;&lt;br&gt;&lt;/h2&gt;" style="rounded=0;whiteSpace=wrap;html=1;align=center;labelPosition=center;verticalLabelPosition=middle;verticalAlign=middle;" vertex="1" parent="QekV2QWb8yjy0fEPQQju-26">
          <mxGeometry width="160" height="200" as="geometry" />
        </mxCell>
        <mxCell id="QekV2QWb8yjy0fEPQQju-25" value="" style="group" vertex="1" connectable="0" parent="QekV2QWb8yjy0fEPQQju-26">
          <mxGeometry x="20" width="120" height="130" as="geometry" />
        </mxCell>
        <mxCell id="QekV2QWb8yjy0fEPQQju-12" value="&lt;h4 style=&quot;text-align: justify;&quot;&gt;&lt;font style=&quot;font-size: 15px;&quot;&gt;算子混淆模块&lt;/font&gt;&lt;/h4&gt;" style="text;strokeColor=none;align=center;fillColor=none;html=1;verticalAlign=middle;whiteSpace=wrap;rounded=0;" vertex="1" parent="QekV2QWb8yjy0fEPQQju-25">
          <mxGeometry x="10" width="100" height="30" as="geometry" />
        </mxCell>
        <mxCell id="QekV2QWb8yjy0fEPQQju-22" value="&lt;h3&gt;重命名&lt;/h3&gt;" style="rounded=0;whiteSpace=wrap;html=1;" vertex="1" parent="QekV2QWb8yjy0fEPQQju-25">
          <mxGeometry y="70" width="120" height="60" as="geometry" />
        </mxCell>
      </root>
    </mxGraphModel>
  </diagram>
</mxfile>
